{
    "asset" : {
        "generator" : "Khronos glTF Blender I/O v3.4.50",
        "version" : "2.0"
    },
    "scene" : 0,
    "scenes" : [
        {
            "name" : "Scene",
            "nodes" : [
                0
            ]
        }
    ],
    "nodes" : [
        {
            "mesh" : 0,
            "name" : "coffee_cup"
        }
    ],
    "materials" : [
        {
            "doubleSided" : true,
            "name" : "Material",
            "pbrMetallicRoughness" : {}
        }
    ],
    "meshes" : [
        {
            "name" : "Cylinder.007",
            "primitives" : [
                {
                    "attributes" : {
                        "POSITION" : 0,
                        "TEXCOORD_0" : 1,
                        "NORMAL" : 2
                    },
                    "indices" : 3,
                    "material" : 0
                }
            ]
        }
    ],
    "accessors" : [
        {
            "bufferView" : 0,
            "componentType" : 5126,
            "count" : 11293,
            "max" : [
                0.2590882480144501,
                0.7324045896530151,
                0.25776004791259766
            ],
            "min" : [
                -0.2626058757305145,
                -4.011392593383789e-05,
                -0.26393407583236694
            ],
            "type" : "VEC3"
        },
        {
            "bufferView" : 1,
            "componentType" : 5126,
            "count" : 11293,
            "type" : "VEC2"
        },
        {
            "bufferView" : 2,
            "componentType" : 5126,
            "count" : 11293,
            "type" : "VEC3"
        },
        {
            "bufferView" : 3,
            "componentType" : 5123,
            "count" : 58416,
            "type" : "SCALAR"
        }
    ],
    "bufferViews" : [
        {
            "buffer" : 0,
            "byteLength" : 135516,
            "byteOffset" : 0,
            "target" : 34962
        },
        {
            "buffer" : 0,
            "byteLength" : 90344,
            "byteOffset" : 135516,
            "target" : 34962
        },
        {
            "buffer" : 0,
            "byteLength" : 135516,
            "byteOffset" : 225860,
            "target" : 34962
        },
        {
            "buffer" : 0,
            "byteLength" : 116832,
            "byteOffset" : 361376,
            "target" : 34963
        }
    ],
    "buffers" : [
        {
            "byteLength" : 478208,
            "uri" : "coffee_cup.bin"
        }
    ]
}
